# xmcd
#
# Track frame offsets: 
#        150
#        18538
#        35391
#        56095
#        72989
#        88118
#        104375
#        124939
#        141317
#        160396
#
# Disc length: 2375 seconds
#
# Revision: 1
# Processed by: cddbd v1.5.2PL0 Copyright (c) Steve Scherf et al.
# Submitted via: ExactAudioCopy v0.99pb4
#
DISCID=9009450a
DTITLE=The Hoochie Coochie Men - Live At The Basement (1st Studio Albu
DTITLE=m)
DYEAR=2007
DGENRE=Blues
TTITLE0=I Just Want To Make Love To You
TTITLE1=Six Strings Down
TTITLE2=24/7 Blues
TTITLE3=Dallas
TTITLE4=The Walk
TTITLE5=Strange Brew
TTITLE6=She Whines
TTITLE7=Playin' The Blues
TTITLE8=You Need Love
TTITLE9=New Old Lady Blues
EXTD=YEAR: 2007
EXTT0=
EXTT1=
EXTT2=
EXTT3=
EXTT4=
EXTT5=
EXTT6=
EXTT7=
EXTT8=
EXTT9=
PLAYORDER=
